#!OML:ASF H:\Not Pregnant\Project 1\Capture day 1\Session 1\non-pregnant.ASF
:FULLY-SPECIFIED
:DEGREES
821
root 7.03234 16.3019 4.4589 -178.835 -182.133 -178.068
lowerback 8.9078 0.293774 -3.14153
upperback -3.58597 -0.0788373 -0.953768
thorax -8.82035 0.109095 0.767531
lowerneck 17.1452 -10.5291 -31.7438
upperneck -0.877133 -21.1727 38.7519
head 5.36769 -12.4278 18.9114
rclavicle 8.51047e-015 -1.0138e-014
rhumerus -36.2686 -15.1872 -76.7845
rradius 24.5746
rwrist 24.9139
rhand -12.1658 -7.66905
rfingers 7.12502
rthumb -166.103 142.815
lclavicle 8.51047e-015 -1.0138e-014
lhumerus -38.9683 -2.98052 86.5695
lradius 41.5318
lwrist 38.2863
lhand -18.1594 -10.6306
lfingers 7.12502
lthumb 8.11645 19.1935
rfemur -74.9581 -11.3467 23.8592
rtibia 130.097
rfoot -14.5401 12.93
rtoes -23.0202
lfemur -7.65415 0.484615 -28.2624
ltibia 21.3363
lfoot -11.4737 -14.7844
ltoes -7.49717
822
root 7.02549 16.3047 4.55721 -179.036 -182.663 -178.016
lowerback 9.09989 0.170456 -3.32307
upperback -3.48968 -0.27056 -0.927658
thorax -8.82089 0.0263047 0.92928
lowerneck 17.1683 -10.5463 -31.7345
upperneck -0.876671 -21.1994 38.7417
head 5.37163 -12.4421 18.8988
rclavicle 4.06266e-015 -2.38542e-015
rhumerus -36.8508 -16.1243 -75.9368
rradius 24.0647
rwrist 25.5215
rhand -12.0397 -7.90542
rfingers 7.12502
rthumb -165.981 142.587
lclavicle 4.06266e-015 -2.38542e-015
lhumerus -38.8663 -3.31214 86.649
lradius 42.2609
lwrist 38.6961
lhand -18.0835 -10.7443
lfingers 7.12502
lthumb 8.18973 19.077
rfemur -76.9317 -11.5171 24.4741
rtibia 130.549
rfoot -14.9587 12.8055
rtoes -22.5187
lfemur -6.77478 0.315582 -28.2809
ltibia 20.8236
lfoot -11.3651 -15.1509
ltoes -7.20857
823
root 7.01834 16.3062 4.65575 -179.2 -183.196 -177.952
lowerback 9.26768 0.0518083 -3.51642
upperback -3.40836 -0.457876 -0.907831
thorax -8.82228 -0.0537955 1.09084
lowerneck 17.2107 -10.561 -31.7248
upperneck -0.89508 -21.2244 38.7444
head 5.36844 -12.4585 18.8953
rclavicle -1.1865e-015 9.93923e-016
rhumerus -37.4891 -17.0239 -75.0705
rradius 23.5977
rwrist 26.2115
rhand -11.8953 -7.99422
rfingers 7.12502
rthumb -165.842 142.508
lclavicle -1.1865e-015 9.93923e-016
lhumerus -38.7813 -3.62441 86.7173
lradius 42.9739
lwrist 39.0368
lhand -17.9307 -10.9128
lfingers 7.12502
lthumb 8.33726 18.9027
rfemur -78.8857 -11.5829 25.0713
rtibia 130.81
rfoot -15.3361 12.6752
rtoes -22.1381
lfemur -5.96881 0.143617 -28.3093
ltibia 20.3736
lfoot -11.2679 -15.5198
ltoes -6.90599
824
root 7.01092 16.3071 4.7547 -179.336 -183.725 -177.889
lowerback 9.41803 -0.0593156 -3.70763
upperback -3.34143 -0.635271 -0.892377
thorax -8.82823 -0.129174 1.24533
lowerneck 17.2795 -10.5725 -31.7161
upperneck -0.934274 -21.2491 38.764
head 5.35782 -12.4784 18.9038
rclavicle 1.24303e-014 -1.59028e-015
rhumerus -38.1836 -17.8791 -74.1919
rradius 23.1746
rwrist 26.9515
rhand -11.7384 -7.94049
rfingers 7.12502
rthumb -165.691 142.573
lclavicle 1.24303e-014 -1.59028e-015
lhumerus -38.7148 -3.92592 86.7786
lradius 43.6612
lwrist 39.3035
lhand -17.7341 -11.1355
lfingers 7.12502
lthumb 8.52697 18.6723
rfemur -80.786 -11.5419 25.6507
rtibia 130.879
rfoot -15.627 12.4958
rtoes -21.9895
lfemur -5.2215 -0.0250798 -28.3326
ltibia 19.9749
lfoot -11.174 -15.893
ltoes -6.56184
825
root 7.00334 16.3078 4.85427 -179.452 -184.25 -177.83
lowerback 9.55548 -0.16171 -3.8922
upperback -3.28342 -0.800363 -0.879094
thorax -8.83575 -0.198929 1.39211
lowerneck 17.3678 -10.5844 -31.7078
upperneck -0.992668 -21.2765 38.7973
head 5.34207 -12.5026 18.9208
rclavicle 1.60953e-014 6.95746e-015
rhumerus -38.9221 -18.6717 -73.3178
rradius 22.8099
rwrist 27.6799
rhand -11.5281 -7.84049
rfingers 7.12502
rthumb -165.488 142.687
lclavicle 1.60953e-014 6.95746e-015
lhumerus -38.6569 -4.21151 86.8337
lradius 44.3148
lwrist 39.5051
lhand -17.4918 -11.4018
lfingers 7.12502
lthumb 8.76073 18.3963
rfemur -82.6044 -11.4057 26.2074
rtibia 130.754
rfoot -15.7952 12.2314
rtoes -22.1444
lfemur -4.51627 -0.189268 -28.3452
ltibia 19.6178
lfoot -11.0811 -16.2661
ltoes -6.16218
826
root 6.99571 16.3085 4.95458 -179.559 -184.762 -177.782
lowerback 9.68634 -0.25371 -4.06466
upperback -3.23088 -0.95019 -0.865975
thorax -8.84519 -0.261884 1.52966
lowerneck 17.4723 -10.5976 -31.7002
upperneck -1.06814 -21.3075 38.8403
head 5.32203 -12.5309 18.9435
rclavicle 1.06226e-014 -1.59028e-015
rhumerus -39.6945 -19.3859 -72.4624
rradius 22.5021
rwrist 28.3466
rhand -11.2746 -7.69742
rfingers 7.12502
rthumb -165.244 142.848
lclavicle 1.06226e-014 -1.59028e-015
lhumerus -38.6047 -4.47861 86.8844
lradius 44.9302
lwrist 39.6479
lhand -17.2324 -11.6953
lfingers 7.12502
lthumb 9.01113 18.0922
rfemur -84.3152 -11.183 26.7337
rtibia 130.437
rfoot -15.8443 11.8758
rtoes -22.4528
lfemur -3.83998 -0.345309 -28.3408
ltibia 19.2959
lfoot -10.9699 -16.6477
ltoes -5.60715
827
root 6.98789 16.3093 5.05547 -179.66 -185.263 -177.748
lowerback 9.81611 -0.333674 -4.2216
upperback -3.18027 -1.08231 -0.854017
thorax -8.85635 -0.317106 1.6546
lowerneck 17.585 -10.6185 -31.685
upperneck -1.16301 -21.3465 38.8936
head 5.29939 -12.5647 18.9683
rclavicle -9.93923e-017 -3.18055e-015
rhumerus -40.486 -20.0286 -71.6389
rradius 22.2547
rwrist 28.8852
rhand -10.9376 -7.56126
rfingers 7.12502
rthumb -164.919 143.008
lclavicle -9.93923e-017 -3.18055e-015
lhumerus -38.5541 -4.73517 86.9319
lradius 45.5059
lwrist 39.7343
lhand -16.9935 -11.9952
lfingers 7.12502
lthumb 9.24161 17.7823
rfemur -85.9029 -10.8903 27.2288
rtibia 129.932
rfoot -15.8128 11.4168
rtoes -22.7425
lfemur -3.19011 -0.491285 -28.3139
ltibia 19.0069
lfoot -10.835 -17.0452
ltoes -5.07098
828
root 6.97992 16.3096 5.15671 -179.752 -185.745 -177.724
lowerback 9.93939 -0.399733 -4.36637
upperback -3.13162 -1.19424 -0.842344
thorax -8.86647 -0.363242 1.76916
lowerneck 17.7075 -10.6455 -31.663
upperneck -1.27625 -21.3918 38.9538
head 5.27286 -12.603 18.9939
rclavicle -4.06266e-015 1.2921e-014
rhumerus -41.289 -20.5947 -70.8559
rradius 22.0597
rwrist 29.304
rhand -10.5484 -7.43982
rfingers 7.12502
rthumb -164.545 143.158
lclavicle -4.06266e-015 1.2921e-014
lhumerus -38.498 -4.97994 86.9795
lradius 46.0297
lwrist 39.776
lhand -16.7901 -12.2954
lfingers 7.12502
lthumb 9.4379 17.4733
rfemur -87.3653 -10.536 27.6846
rtibia 129.248
rfoot -15.6742 10.8515
rtoes -23.1312
lfemur -2.5684 -0.616626 -28.2672
ltibia 18.7486
lfoot -10.6622 -17.4614
ltoes -4.35832
829
root 6.97174 16.3096 5.25802 -179.837 -186.21 -177.713
lowerback 10.0613 -0.452779 -4.49752
upperback -3.08378 -1.28721 -0.831213
thorax -8.87749 -0.400942 1.87248
lowerneck 17.8284 -10.6826 -31.6301
upperneck -1.40263 -21.4458 39.0184
head 5.24596 -12.6457 19.0164
rclavicle -9.17515e-015 1.59028e-015
rhumerus -42.0941 -21.1033 -70.1123
rradius 21.9073
rwrist 29.6336
rhand -10.1162 -7.34166
rfingers 7.12502
rthumb -164.128 143.289
lclavicle -9.17515e-015 1.59028e-015
lhumerus -38.4341 -5.21288 87.025
lradius 46.5035
lwrist 39.7865
lhand -16.6216 -12.581
lfingers 7.12502
lthumb 9.60041 17.1802
rfemur -88.6957 -10.1423 28.0964
rtibia 128.389
rfoot -15.5615 10.2261
rtoes -22.9171
lfemur -1.97567 -0.722301 -28.1992
ltibia 18.5204
lfoot -10.4499 -17.8937
ltoes -3.69612
830
root 6.9634 16.3089 5.35944 -179.912 -186.664 -177.708
lowerback 10.1809 -0.495739 -4.62181
upperback -3.03891 -1.36592 -0.819232
thorax -8.89095 -0.431995 1.97057
lowerneck 17.9564 -10.7244 -31.5931
upperneck -1.54415 -21.504 39.0875
head 5.21573 -12.6915 19.0396
rclavicle -6.83322e-017 1.25234e-014
rhumerus -42.908 -21.5721 -69.3869
rradius 21.7702
rwrist 29.9577
rhand -9.72201 -7.18229
rfingers 7.12502
rthumb -163.749 143.479
lclavicle -6.83322e-017 1.25234e-014
lhumerus -38.3657 -5.43146 87.074
lradius 46.925
lwrist 39.7793
lhand -16.5068 -12.8302
lfingers 7.12502
lthumb 9.71125 16.9259
rfemur -89.8875 -9.73757 28.4519
rtibia 127.368
rfoot -15.3743 9.54792
rtoes -22.6227
lfemur -1.40795 -0.808191 -28.1167
ltibia 18.3176
lfoot -10.2091 -18.3402
ltoes -3.10637
